<svg width="27" height="31" viewBox="0 0 27 31" fill="none" xmlns="http://www.w3.org/2000/svg">
<path d="M26.0682 15.4545C26.0682 18.5227 25.5142 21.1742 24.4062 23.4091C23.2983 25.6439 21.7784 27.3674 19.8466 28.5795C17.9148 29.7917 15.7083 30.3977 13.2273 30.3977C10.7462 30.3977 8.53977 29.7917 6.60795 28.5795C4.67614 27.3674 3.15625 25.6439 2.0483 23.4091C0.940341 21.1742 0.386364 18.5227 0.386364 15.4545C0.386364 12.3864 0.940341 9.73485 2.0483 7.5C3.15625 5.26515 4.67614 3.54167 6.60795 2.32955C8.53977 1.11742 10.7462 0.511363 13.2273 0.511363C15.7083 0.511363 17.9148 1.11742 19.8466 2.32955C21.7784 3.54167 23.2983 5.26515 24.4062 7.5C25.5142 9.73485 26.0682 12.3864 26.0682 15.4545ZM22.6591 15.4545C22.6591 12.9356 22.2377 10.8097 21.3949 9.0767C20.5616 7.34375 19.4299 6.0322 18 5.14205C16.5795 4.25189 14.9886 3.80682 13.2273 3.80682C11.4659 3.80682 9.87027 4.25189 8.44034 5.14205C7.01989 6.0322 5.88826 7.34375 5.04545 9.0767C4.21212 10.8097 3.79545 12.9356 3.79545 15.4545C3.79545 17.9735 4.21212 20.0994 5.04545 21.8324C5.88826 23.5653 7.01989 24.8769 8.44034 25.767C9.87027 26.6572 11.4659 27.1023 13.2273 27.1023C14.9886 27.1023 16.5795 26.6572 18 25.767C19.4299 24.8769 20.5616 23.5653 21.3949 21.8324C22.2377 20.0994 22.6591 17.9735 22.6591 15.4545Z" fill="#ADACEC"/>
</svg>
