<svg width="22" height="30" viewBox="0 0 22 30" fill="none" xmlns="http://www.w3.org/2000/svg">
<path d="M0.522727 30V0.90909H10.3523C12.625 0.90909 14.4905 1.29735 15.9489 2.07386C17.4072 2.84091 18.4867 3.89678 19.1875 5.24148C19.8883 6.58617 20.2386 8.11553 20.2386 9.82955C20.2386 11.5436 19.8883 13.0634 19.1875 14.3892C18.4867 15.715 17.4119 16.7566 15.9631 17.5142C14.5142 18.2623 12.6629 18.6364 10.4091 18.6364H2.45455V15.4545H10.2955C11.8485 15.4545 13.0985 15.2273 14.0455 14.7727C15.0019 14.3182 15.6932 13.6742 16.1193 12.8409C16.5549 11.9981 16.7727 10.9943 16.7727 9.82955C16.7727 8.66477 16.5549 7.64678 16.1193 6.77557C15.6837 5.90436 14.9877 5.23201 14.0312 4.75852C13.0748 4.27557 11.8106 4.03409 10.2386 4.03409H4.04545V30H0.522727ZM14.2159 16.9318L21.375 30H17.2841L10.2386 16.9318H14.2159Z" fill="#ADACEC"/>
</svg>
