<svg width="22" height="31" viewBox="0 0 22 31" fill="none" xmlns="http://www.w3.org/2000/svg">
<path d="M17.4318 8.18182C17.2614 6.74242 16.5701 5.625 15.358 4.82955C14.1458 4.03409 12.6591 3.63636 10.8977 3.63636C9.60985 3.63636 8.48296 3.8447 7.51705 4.26136C6.56061 4.67803 5.8125 5.25095 5.27273 5.98011C4.74242 6.70928 4.47727 7.53788 4.47727 8.46591C4.47727 9.24242 4.66193 9.91004 5.03125 10.4688C5.41004 11.018 5.89299 11.4773 6.48011 11.8466C7.06723 12.2064 7.68277 12.5047 8.3267 12.7415C8.97064 12.9687 9.5625 13.1534 10.1023 13.2955L13.0568 14.0909C13.8144 14.2898 14.6572 14.5644 15.5852 14.9148C16.5227 15.2652 17.4176 15.7434 18.2699 16.3494C19.1316 16.946 19.8419 17.7131 20.4006 18.6506C20.9593 19.5881 21.2386 20.7386 21.2386 22.1023C21.2386 23.6742 20.8267 25.0947 20.0028 26.3636C19.1884 27.6326 17.9953 28.6411 16.4233 29.3892C14.8608 30.1373 12.9621 30.5114 10.7273 30.5114C8.64394 30.5114 6.83996 30.1752 5.31534 29.5028C3.80019 28.8305 2.60701 27.893 1.7358 26.6903C0.874053 25.4877 0.386364 24.0909 0.272727 22.5H3.90909C4.00379 23.5985 4.37311 24.5076 5.01705 25.2273C5.67045 25.9375 6.49432 26.4678 7.48864 26.8182C8.49242 27.1591 9.57197 27.3295 10.7273 27.3295C12.072 27.3295 13.2794 27.1117 14.3494 26.6761C15.4195 26.2311 16.267 25.6155 16.892 24.8295C17.517 24.0341 17.8295 23.1061 17.8295 22.0455C17.8295 21.0795 17.5597 20.2936 17.0199 19.6875C16.4801 19.0814 15.7699 18.589 14.8892 18.2102C14.0085 17.8314 13.0568 17.5 12.0341 17.2159L8.45455 16.1932C6.18182 15.5398 4.38258 14.607 3.05682 13.3949C1.73106 12.1828 1.06818 10.5966 1.06818 8.63636C1.06818 7.00757 1.50852 5.58712 2.3892 4.375C3.27936 3.15341 4.47254 2.20644 5.96875 1.53409C7.47443 0.852272 9.1553 0.511363 11.0114 0.511363C12.8864 0.511363 14.553 0.847537 16.0114 1.51989C17.4697 2.18276 18.625 3.09185 19.4773 4.24716C20.339 5.40246 20.7936 6.71401 20.8409 8.18182H17.4318Z" fill="#ADACEC"/>
</svg>
