<svg id="Layer_1" data-name="Layer 1" xmlns="http://www.w3.org/2000/svg" viewBox="0 0 120.86 122.88"><title>mechanical-arm</title><path d="M12.94,22.06a1.47,1.47,0,0,1,.43-.16l67.57-15A10.91,10.91,0,0,1,96.37,2.56L108.22,0a.61.61,0,0,1,.5.13l11.91,9.77a.61.61,0,0,1,.15.76l-1.68,3a.59.59,0,0,1-.76.25L106,8.16l-4.46,3.71a10.84,10.84,0,0,1-3.19,7.65c-.22.22-.46.44-.7.64l.27,5.94,12.44,6a.58.58,0,0,1,.18.81l-1.74,2.73a.6.6,0,0,1-.62.31l-14.89-2.6a.58.58,0,0,1-.44-.33L87.9,22.36A10.27,10.27,0,0,1,86.79,22L43.69,36.48l28.4,13.43.08,0A17.81,17.81,0,0,1,86.72,67.44c0,.22,0,.45,0,.67v.07l4,37.21h.83a11.16,11.16,0,0,1,11.12,11.12V122a.89.89,0,0,1-.89.89H23.15a.89.89,0,0,1-.89-.89v-5.48a11.16,11.16,0,0,1,11.12-11.12h1.14l.06-.16,15.78-37L7.84,45.6a1.3,1.3,0,0,1-.41-.32,12.09,12.09,0,0,1-3.89-19.7h0A12,12,0,0,1,12.09,22c.29,0,.57,0,.85,0Zm78-13.12a2.82,2.82,0,1,1-2.82,2.82,2.82,2.82,0,0,1,2.82-2.82Zm-11,1.2L18.39,23.8a12.16,12.16,0,0,1,2.25,1.78,12.08,12.08,0,0,1,0,17.09h0a12,12,0,0,1-5.91,3.26L51.27,65.4a17.74,17.74,0,0,1,5.1-10.53h0a17.75,17.75,0,0,1,9-4.85L39.11,37.58a1.45,1.45,0,0,1-.77-.87,1.48,1.48,0,0,1,.93-1.87L83.46,20l-.52-.48a10.86,10.86,0,0,1-3.18-7.7,11.66,11.66,0,0,1,.12-1.68ZM96.66,5.8a8.52,8.52,0,1,0,2.49,6,8.49,8.49,0,0,0-2.49-6ZM12.09,30.48a3.65,3.65,0,1,1-3.64,3.65,3.64,3.64,0,0,1,3.64-3.65Zm6.46-2.81a9.14,9.14,0,1,0,2.67,6.46,9.13,9.13,0,0,0-2.67-6.46ZM68.94,59.5A7.94,7.94,0,1,1,61,67.44a7.95,7.95,0,0,1,7.94-7.94ZM84.58,75.91A18.16,18.16,0,0,1,81.51,80h0a17.79,17.79,0,0,1-29.67-7.69L37.73,105.39h50L84.58,75.91ZM79.42,57a14.85,14.85,0,0,0-21,0h0a14.82,14.82,0,0,0,21,21h0a14.82,14.82,0,0,0,0-21Zm-46,50.21A9.39,9.39,0,0,0,24,116.51v1h76.85v-1a9.35,9.35,0,0,0-9.34-9.34Z"/></svg>